<svg width="28" height="28" viewBox="0 0 28 28" fill="none" xmlns="http://www.w3.org/2000/svg">
<g id="free-delivery 1" clip-path="url(#clip0_301_1104)">
<g id="Group">
<path id="Vector" d="M22.7865 11.4307H20.0922V9.61511C20.0922 9.16208 19.7249 8.7948 19.2719 8.7948H0.820312C0.367281 8.7948 0 9.16208 0 9.61511V24.5521C0 25.0051 0.367281 25.3724 0.820312 25.3724H3.61375C4.50647 28.8659 9.43655 28.8635 10.3279 25.3724H17.672C18.5648 28.8659 23.4948 28.8635 24.3862 25.3724H27.1797C27.6327 25.3724 28 25.0051 28 24.5521V16.6443C28 13.7695 25.6612 11.4307 22.7865 11.4307ZM6.97085 26.3677C5.96969 26.3677 5.15523 25.5532 5.15523 24.5521C5.25492 22.1434 8.68716 22.1441 8.78648 24.5521C8.78648 25.5532 7.97196 26.3677 6.97085 26.3677ZM18.4516 22.2527C18.0805 22.6682 17.8085 23.1736 17.672 23.7317H10.3279C9.43518 20.2383 4.5051 20.2406 3.61375 23.7317H1.64062V10.4354H18.4516V22.2527ZM21.0291 26.3677C20.028 26.3677 19.2135 25.5532 19.2135 24.5521C19.3132 22.1434 22.7455 22.1441 22.8448 24.5521C22.8448 25.5532 22.0303 26.3677 21.0291 26.3677ZM26.3594 23.7318H24.3871C24.0179 22.2206 22.6524 21.0958 21.0292 21.0958H20.0922V13.0714H21.9662V18.4016C21.9662 18.8546 22.3334 19.2219 22.7865 19.2219H26.3594V23.7318ZM26.3594 17.5812H23.6068V13.1664C25.1828 13.5381 26.3594 14.9564 26.3594 16.6443V17.5812Z" fill="#244D4D"/>
<path id="Vector_2" d="M20.1506 6.9208H22.3472C23.4356 6.87743 23.4348 5.32311 22.3472 5.28018H21.1189L21.2848 4.28486H22.3472C23.4356 4.2415 23.4348 2.68717 22.3472 2.64424H21.5582L21.7241 1.64893H23.2258C24.3142 1.60556 24.3134 0.0512305 23.2258 0.00830078H21.0292C20.6282 0.00830078 20.2859 0.298199 20.22 0.693754L19.3414 5.96563C19.2581 6.46575 19.6444 6.9208 20.1506 6.9208Z" fill="#222222"/>
<path id="Vector_3" d="M14.879 6.9208H17.0757C18.1641 6.87743 18.1633 5.32311 17.0757 5.28018H15.8474L16.0133 4.28486H17.0757C18.1641 4.2415 18.1633 2.68717 17.0757 2.64424H16.2868L16.4527 1.64893H17.9543C19.0427 1.60556 19.0419 0.0512305 17.9543 0.00830078H15.7578C15.3567 0.00830078 15.0145 0.298199 14.9486 0.693754L14.0699 5.96563C13.9866 6.46575 14.3729 6.9208 14.879 6.9208Z" fill="#244D4D"/>
<path id="Vector_4" d="M8.59384 6.90964C9.23073 7.01579 9.49974 6.46394 9.53786 6.23535L9.67239 5.42827L11.2874 6.73765C11.6607 7.04024 12.1736 6.94716 12.4412 6.61707C12.7266 6.26515 12.6725 5.74857 12.3206 5.46327L11.4089 4.72417H12.1699C12.5709 4.72417 12.9131 4.43427 12.9791 4.03877L13.4918 0.963527C13.5751 0.463356 13.1888 0.00830078 12.6826 0.00830078H9.60737C9.20634 0.00830078 8.86411 0.298199 8.79821 0.693754L8.28913 3.74805C8.28891 3.74914 8.2888 3.75029 8.28858 3.75139C8.28814 3.75357 8.28787 3.75576 8.28748 3.75795C8.28568 3.76796 8.28388 3.77802 8.28245 3.78814L7.91949 5.96563C7.84501 6.41248 8.14694 6.83516 8.59384 6.90964ZM10.3023 1.64893H11.7142L11.4751 3.08354H10.0631L10.3023 1.64893Z" fill="#244D4D"/>
<path id="Vector_5" d="M3.75982 6.90971C4.39671 7.01586 4.66572 6.46395 4.70384 6.23541L4.95567 4.72429H6.09126C7.17965 4.68092 7.17883 3.12659 6.09126 3.08366H5.22911L5.4682 1.64905H6.96992C8.05831 1.60568 8.05749 0.0513525 6.96992 0.00842285H4.77329C4.37227 0.00842285 4.03003 0.298321 3.96413 0.693876L3.08552 5.96575C3.01098 6.41255 3.31291 6.83523 3.75982 6.90971Z" fill="#244D4D"/>
</g>
</g>
<defs>
<clipPath id="clip0_301_1104">
<rect width="28" height="28" fill="white"/>
</clipPath>
</defs>
</svg>
