<svg width="31" height="24" viewBox="0 0 31 24" fill="none" xmlns="http://www.w3.org/2000/svg">
<g id="Frame 65" clip-path="url(#clip0_301_1000)">
<g id="g15">
<path id="XMLID_1775_" d="M5.64151 23.9469V22.354C5.64151 21.7434 5.26899 21.3451 4.63037 21.3451C4.31106 21.3451 3.96514 21.4513 3.72566 21.7965C3.53939 21.5044 3.2733 21.3451 2.87416 21.3451C2.60807 21.3451 2.34198 21.4248 2.12911 21.7168V21.3982H1.57031V23.9469H2.12911V22.5398C2.12911 22.0885 2.36859 21.8761 2.74111 21.8761C3.11364 21.8761 3.29991 22.1151 3.29991 22.5398V23.9469H3.8587V22.5398C3.8587 22.0885 4.12479 21.8761 4.47071 21.8761C4.84324 21.8761 5.02951 22.1151 5.02951 22.5398V23.9469H5.64151ZM13.917 21.3982H13.0123V20.6283H12.4535V21.3982H11.9479V21.9027H12.4535V23.0708C12.4535 23.6549 12.6929 24 13.3316 24C13.571 24 13.8371 23.9204 14.0234 23.8142L13.8637 23.3363C13.7041 23.4425 13.5178 23.469 13.3848 23.469C13.1187 23.469 13.0123 23.3098 13.0123 23.0443V21.9027H13.917V21.3982ZM18.6534 21.3451C18.3341 21.3451 18.1212 21.5044 17.9882 21.7168V21.3982H17.4294V23.9469H17.9882V22.5133C17.9882 22.0885 18.1744 21.8496 18.5204 21.8496C18.6268 21.8496 18.7598 21.8761 18.8663 21.9027L19.0259 21.3717C18.9195 21.3451 18.7598 21.3451 18.6534 21.3451ZM11.4955 21.6106C11.2294 21.4248 10.8569 21.3451 10.4578 21.3451C9.81916 21.3451 9.39341 21.6637 9.39341 22.1682C9.39341 22.5929 9.71272 22.8319 10.2715 22.9115L10.5376 22.9381C10.8303 22.9912 10.99 23.0708 10.99 23.2035C10.99 23.3894 10.7771 23.5221 10.4046 23.5221C10.032 23.5221 9.73933 23.3894 9.55307 23.2566L9.28697 23.6814C9.57967 23.8938 9.97881 24 10.378 24C11.123 24 11.5488 23.6549 11.5488 23.177C11.5488 22.7257 11.2028 22.4867 10.6706 22.4071L10.4046 22.3805C10.1651 22.354 9.97881 22.3009 9.97881 22.1416C9.97881 21.9558 10.1651 21.8496 10.4578 21.8496C10.7771 21.8496 11.0964 21.9823 11.2561 22.062L11.4955 21.6106ZM26.3435 21.3451C26.0241 21.3451 25.8113 21.5044 25.6782 21.7168V21.3982H25.1194V23.9469H25.6782V22.5133C25.6782 22.0885 25.8645 21.8496 26.2104 21.8496C26.3168 21.8496 26.4499 21.8761 26.5563 21.9027L26.716 21.3717C26.6095 21.3451 26.4499 21.3451 26.3435 21.3451ZM19.2122 22.6726C19.2122 23.4425 19.7444 24 20.5693 24C20.9418 24 21.2079 23.9204 21.474 23.708L21.2079 23.2566C20.995 23.4159 20.7821 23.4956 20.5427 23.4956C20.0903 23.4956 19.771 23.177 19.771 22.6726C19.771 22.1947 20.0903 21.8761 20.5427 21.8496C20.7821 21.8496 20.995 21.9292 21.2079 22.0885L21.474 21.6372C21.2079 21.4248 20.9418 21.3451 20.5693 21.3451C19.7444 21.3451 19.2122 21.9027 19.2122 22.6726ZM24.3744 22.6726V21.3982H23.8156V21.7168C23.6293 21.4779 23.3632 21.3451 23.0173 21.3451C22.2989 21.3451 21.7401 21.9027 21.7401 22.6726C21.7401 23.4425 22.2989 24 23.0173 24C23.3898 24 23.6559 23.8673 23.8156 23.6283V23.9469H24.3744V22.6726ZM22.3255 22.6726C22.3255 22.2213 22.6182 21.8496 23.0971 21.8496C23.5495 21.8496 23.8688 22.1947 23.8688 22.6726C23.8688 23.1239 23.5495 23.4956 23.0971 23.4956C22.6182 23.469 22.3255 23.1239 22.3255 22.6726ZM15.6466 21.3451C14.9015 21.3451 14.3693 21.8761 14.3693 22.6726C14.3693 23.469 14.9015 24 15.6732 24C16.0457 24 16.4182 23.8938 16.7109 23.6549L16.4448 23.2566C16.232 23.4159 15.9659 23.5221 15.6998 23.5221C15.3539 23.5221 15.0079 23.3628 14.9281 22.9115H16.8174C16.8174 22.8319 16.8174 22.7788 16.8174 22.6991C16.844 21.8761 16.365 21.3451 15.6466 21.3451ZM15.6466 21.823C15.9925 21.823 16.232 22.0354 16.2852 22.4336H14.9547C15.0079 22.0885 15.2474 21.823 15.6466 21.823ZM29.5099 22.6726V20.3894H28.9512V21.7168C28.7649 21.4779 28.4988 21.3451 28.1529 21.3451C27.4344 21.3451 26.8756 21.9027 26.8756 22.6726C26.8756 23.4425 27.4344 24 28.1529 24C28.5254 24 28.7915 23.8673 28.9512 23.6283V23.9469H29.5099V22.6726ZM27.461 22.6726C27.461 22.2213 27.7537 21.8496 28.2327 21.8496C28.6851 21.8496 29.0044 22.1947 29.0044 22.6726C29.0044 23.1239 28.6851 23.4956 28.2327 23.4956C27.7537 23.469 27.461 23.1239 27.461 22.6726ZM8.7814 22.6726V21.3982H8.22261V21.7168C8.03634 21.4779 7.77025 21.3451 7.42433 21.3451C6.70588 21.3451 6.14709 21.9027 6.14709 22.6726C6.14709 23.4425 6.70588 24 7.42433 24C7.79686 24 8.06295 23.8673 8.22261 23.6283V23.9469H8.7814V22.6726ZM6.70588 22.6726C6.70588 22.2213 6.99858 21.8496 7.47754 21.8496C7.9299 21.8496 8.24922 22.1947 8.24922 22.6726C8.24922 23.1239 7.9299 23.4956 7.47754 23.4956C6.99858 23.469 6.70588 23.1239 6.70588 22.6726Z" fill="black"/>
</g>
<g id="XMLID_328_">
<path id="rect19" d="M19.6905 2.04419H11.3086V17.0707H19.6905V2.04419Z" fill="#FF5F00"/>
<path id="XMLID_330_" d="M11.8411 9.5575C11.8411 6.50441 13.278 3.79646 15.4865 2.04425C13.8634 0.769913 11.8145 0 9.57931 0C4.28408 0 0 4.27433 0 9.5575C0 14.8407 4.28408 19.115 9.57931 19.115C11.8145 19.115 13.8634 18.3451 15.4865 17.0708C13.278 15.3451 11.8411 12.6106 11.8411 9.5575Z" fill="#EB001B"/>
<path id="path22" d="M31.0002 9.5575C31.0002 14.8407 26.7161 19.115 21.4209 19.115C19.1857 19.115 17.1368 18.3451 15.5137 17.0708C17.7488 15.3186 19.1591 12.6106 19.1591 9.5575C19.1591 6.50441 17.7222 3.79646 15.5137 2.04425C17.1368 0.769913 19.1857 0 21.4209 0C26.7161 0 31.0002 4.30088 31.0002 9.5575Z" fill="#F79E1B"/>
</g>
</g>
<defs>
<clipPath id="clip0_301_1000">
<rect width="31" height="24" fill="white"/>
</clipPath>
</defs>
</svg>
