<svg width="72" height="24" viewBox="0 0 72 24" fill="none" xmlns="http://www.w3.org/2000/svg">
<g id="Frame 14" clip-path="url(#clip0_301_1019)">
<g id="Group 8908">
<g id="g10">
<g id="g12">
<path id="path14" d="M9.41984 0.000873566H3.92945C3.55368 0.000873566 3.23419 0.349237 3.17556 0.822626L0.954984 18.7861C0.910819 19.1404 1.12602 19.4601 1.40776 19.4601H4.02897C4.40467 19.4601 4.72416 19.1119 4.78279 18.6376L5.38168 13.7926C5.43952 13.3182 5.7598 12.9699 6.13471 12.9699H7.87281C11.4895 12.9699 13.5768 10.7369 14.1219 6.31185C14.3676 4.37585 14.1323 2.85477 13.4218 1.78949C12.6415 0.619593 11.2575 0.000873566 9.41984 0.000873566ZM10.0533 6.56182C9.75302 9.07551 8.24773 9.07552 6.79223 9.07552H5.96375L6.54496 4.38105C6.57952 4.09727 6.77214 3.88832 6.99696 3.88832H7.37666C8.36812 3.88832 9.30345 3.88832 9.78671 4.60936C10.0749 5.03965 10.1633 5.67879 10.0533 6.56182Z" fill="#283B82"/>
<path id="path16" d="M25.8319 6.48083H23.2028C22.9789 6.48083 22.7854 6.68981 22.7507 6.97357L22.6345 7.91184L22.4506 7.57172C21.8814 6.51766 20.6121 6.16536 19.3452 6.16536C16.4399 6.16536 13.9584 8.97302 13.4751 12.9115C13.2239 14.8762 13.5811 16.7548 14.4546 18.0649C15.2558 19.2694 16.4021 19.7714 17.7662 19.7714C20.1072 19.7714 21.4053 17.8509 21.4053 17.8509L21.2881 18.783C21.2439 19.1395 21.4591 19.459 21.7393 19.459H24.1075C24.484 19.459 24.8019 19.1107 24.8614 18.6366L26.2823 7.15482C26.3274 6.80141 26.113 6.48083 25.8319 6.48083ZM22.1671 13.0099C21.9135 14.9263 20.7213 16.213 19.2009 16.213C18.4374 16.213 17.8272 15.9005 17.4354 15.3085C17.0468 14.7205 16.8991 13.8836 17.0228 12.9514C17.2596 11.0514 18.4719 9.72287 19.969 9.72287C20.7157 9.72287 21.3226 10.0393 21.7224 10.6364C22.1231 11.2398 22.2819 12.0818 22.1671 13.0099Z" fill="#283B82"/>
<path id="path18" d="M39.8337 6.48081H37.1917C36.9396 6.48081 36.7028 6.64061 36.5599 6.90802L32.9159 13.7566L31.3713 7.17534C31.2742 6.7635 30.9764 6.48081 30.6392 6.48081H28.0429C27.7273 6.48081 27.5082 6.87412 27.6086 7.25313L30.5187 18.1499L27.7828 23.078C27.5675 23.4661 27.7843 24 28.1561 24H30.795C31.0454 24 31.2799 23.8442 31.4219 23.582L40.2094 7.39765C40.4198 7.01037 40.2039 6.48081 39.8337 6.48081Z" fill="#283B82"/>
<path id="path20" d="M48.5819 0.000873566H43.0907C42.7159 0.000873566 42.3963 0.349237 42.3376 0.822626L40.1171 18.7861C40.073 19.1404 40.2881 19.4601 40.5683 19.4601H43.3862C43.6478 19.4601 43.8719 19.2164 43.9128 18.8845L44.543 13.7926C44.6008 13.3182 44.9212 12.9699 45.296 12.9699H47.0334C50.6507 12.9699 52.7373 10.7369 53.2832 6.31185C53.5298 4.37585 53.2929 2.85477 52.5824 1.78949C51.8028 0.619593 50.4196 0.000873566 48.5819 0.000873566ZM49.2154 6.56182C48.9159 9.07551 47.4108 9.07552 45.9543 9.07552H45.1267L45.7088 4.38105C45.7433 4.09727 45.9342 3.88832 46.1599 3.88832H46.5396C47.5304 3.88832 48.4663 3.88832 48.9496 4.60936C49.2379 5.03965 49.3253 5.67879 49.2154 6.56182Z" fill="#469BDB"/>
<path id="path22" d="M64.9927 6.48083H62.3651C62.1395 6.48083 61.9475 6.68981 61.9138 6.97357L61.7974 7.91184L61.6128 7.57172C61.0437 6.51766 59.7752 6.16536 58.5084 6.16536C55.6029 6.16536 53.1224 8.97302 52.6389 12.9115C52.3885 14.8762 52.7441 16.7548 53.6177 18.0649C54.4205 19.2694 55.5652 19.7714 56.9292 19.7714C59.2702 19.7714 60.5683 17.8509 60.5683 17.8509L60.4511 18.783C60.407 19.1395 60.6221 19.459 60.904 19.459H63.2714C63.6463 19.459 63.9659 19.1107 64.0245 18.6366L65.4463 7.15482C65.4895 6.80141 65.2744 6.48083 64.9927 6.48083ZM61.3278 13.0099C61.0757 14.9263 59.8819 16.213 58.3615 16.213C57.5995 16.213 56.9878 15.9005 56.596 15.3085C56.2076 14.7205 56.0613 13.8836 56.1834 12.9514C56.4218 11.0514 57.6325 9.72287 59.1298 9.72287C59.8764 9.72287 60.4832 10.0393 60.883 10.6364C61.2852 11.2398 61.4442 12.0818 61.3278 13.0099Z" fill="#469BDB"/>
<path id="path24" d="M68.0933 0.493702L65.8397 18.7861C65.7957 19.1404 66.0107 19.4601 66.291 19.4601H68.5564C68.933 19.4601 69.2526 19.1119 69.3104 18.6376L71.5324 0.67515C71.5767 0.320589 71.3616 1.14441e-05 71.0813 1.14441e-05H68.5444C68.3204 0.000865936 68.1278 0.210096 68.0933 0.493702Z" fill="#469BDB"/>
</g>
</g>
</g>
</g>
<defs>
<clipPath id="clip0_301_1019">
<rect width="70.5882" height="24" fill="white" transform="translate(0.949219)"/>
</clipPath>
</defs>
</svg>
