<svg width="28" height="28" viewBox="0 0 28 28" fill="none" xmlns="http://www.w3.org/2000/svg">
<g id="shield 3" clip-path="url(#clip0_301_1094)">
<g id="surface1">
<path id="Vector" d="M25.8938 7.59711L25.893 7.57532C25.8808 7.30637 25.8727 7.02182 25.8678 6.70524C25.8449 5.16139 24.6176 3.88435 23.0736 3.79805C19.8543 3.61839 17.3639 2.56865 15.236 0.494589L15.2178 0.477286C14.5238 -0.159095 13.4768 -0.159095 12.7825 0.477286L12.7644 0.494589C10.6365 2.56865 8.14606 3.61839 4.92677 3.79826C3.38292 3.88435 2.15545 5.16139 2.13259 6.70545C2.12789 7.0199 2.11956 7.30445 2.10738 7.57532L2.1061 7.62595C2.04351 10.9087 1.96575 14.9942 3.33251 18.7025C4.08403 20.7417 5.22221 22.5144 6.71522 23.9715C8.41565 25.6309 10.6429 26.9483 13.335 27.887C13.4225 27.9175 13.5135 27.9423 13.6063 27.9609C13.737 27.9869 13.8686 28 14.0002 28C14.1318 28 14.2636 27.9869 14.3941 27.9609C14.4868 27.9423 14.5784 27.9173 14.6665 27.8865C17.3553 26.9462 19.5802 25.6281 21.2791 23.9689C22.7715 22.5114 23.9097 20.7383 24.6619 18.6986C26.0337 14.9793 25.9562 10.886 25.8938 7.59711ZM23.1204 18.1302C21.6788 22.0386 18.7362 24.7228 14.1243 26.3356C14.1078 26.3412 14.0903 26.3461 14.0722 26.3497C14.0245 26.3591 13.976 26.3591 13.9278 26.3495C13.9098 26.3459 13.8923 26.3412 13.8761 26.3356C9.25925 24.7258 6.31468 22.0431 4.87422 18.1345C3.61449 14.7163 3.68584 10.9659 3.74886 7.65735L3.74928 7.63898C3.7621 7.35465 3.77065 7.05686 3.77535 6.72959C3.7856 6.04407 4.33162 5.47691 5.01841 5.43867C6.84019 5.33698 8.44065 4.98493 9.91122 4.36244C11.3799 3.7408 12.6843 2.86452 13.8985 1.68361C13.9602 1.63149 14.0403 1.63127 14.1019 1.68361C15.3163 2.86452 16.6207 3.7408 18.0891 4.36244C19.5597 4.98493 21.1602 5.33698 22.9821 5.43867C23.6689 5.47691 24.215 6.04407 24.225 6.7298C24.2299 7.05878 24.2385 7.35657 24.2513 7.63898C24.3141 10.9514 24.3837 14.7048 23.1204 18.1302Z" fill="#244D4D"/>
<path id="Vector_2" d="M13.9995 7.02246C10.1517 7.02246 7.02148 10.1529 7.02148 14.0005C7.02148 17.8482 10.1517 20.9787 13.9995 20.9787C17.847 20.9787 20.9775 17.8482 20.9775 14.0005C20.9775 10.1529 17.847 7.02246 13.9995 7.02246ZM13.9995 19.3355C11.0577 19.3355 8.66446 16.9423 8.66446 14.0005C8.66446 11.0587 11.0577 8.66544 13.9995 8.66544C16.9411 8.66544 19.3343 11.0587 19.3343 14.0005C19.3343 16.9423 16.9411 19.3355 13.9995 19.3355Z" fill="#244D4D"/>
<path id="Vector_3" d="M16.0056 11.8342L12.7645 15.0753L11.8848 14.1956C11.5639 13.8747 11.0438 13.8747 10.7229 14.1956C10.4023 14.5164 10.4023 15.0366 10.7229 15.3573L12.1837 16.818C12.3441 16.9784 12.5543 17.0586 12.7645 17.0586C12.9747 17.0586 13.1849 16.9784 13.3453 16.818L17.1675 12.9959C17.4881 12.675 17.4881 12.1548 17.1675 11.8342C16.8466 11.5131 16.3265 11.5131 16.0056 11.8342Z" fill="#244D4D"/>
</g>
</g>
<defs>
<clipPath id="clip0_301_1094">
<rect width="28" height="28" fill="white"/>
</clipPath>
</defs>
</svg>
