<svg width="11" height="11" viewBox="0 0 11 11" fill="none" xmlns="http://www.w3.org/2000/svg">
<g clip-path="url(#clip0_2296_132)">
<path d="M8.87109 6.91895C8.29227 6.91895 7.77795 7.20023 7.45746 7.63322L4.69828 6.22316C4.74457 6.0659 4.76953 5.89959 4.76953 5.72754C4.76953 5.49451 4.72385 5.27199 4.64113 5.0683L7.53293 3.33084C7.85559 3.70955 8.33574 3.9502 8.87109 3.9502C9.84035 3.9502 10.6289 3.16164 10.6289 2.19238C10.6289 1.22312 9.84035 0.43457 8.87109 0.43457C7.90184 0.43457 7.11328 1.22312 7.11328 2.19238C7.11328 2.41641 7.15549 2.63072 7.23223 2.82793L4.3332 4.56973C4.01078 4.20219 3.53791 3.96973 3.01172 3.96973C2.04246 3.96973 1.25391 4.75828 1.25391 5.72754C1.25391 6.6968 2.04246 7.48535 3.01172 7.48535C3.60004 7.48535 4.12172 7.19481 4.44096 6.74969L7.19213 8.15564C7.1409 8.32037 7.11328 8.49539 7.11328 8.67676C7.11328 9.64602 7.90184 10.4346 8.87109 10.4346C9.84035 10.4346 10.6289 9.64602 10.6289 8.67676C10.6289 7.7075 9.84035 6.91895 8.87109 6.91895ZM8.87109 1.02051C9.51727 1.02051 10.043 1.54621 10.043 2.19238C10.043 2.83855 9.51727 3.36426 8.87109 3.36426C8.22492 3.36426 7.69922 2.83855 7.69922 2.19238C7.69922 1.54621 8.22492 1.02051 8.87109 1.02051ZM3.01172 6.89941C2.36555 6.89941 1.83984 6.37371 1.83984 5.72754C1.83984 5.08137 2.36555 4.55566 3.01172 4.55566C3.65789 4.55566 4.18359 5.08137 4.18359 5.72754C4.18359 6.37371 3.65789 6.89941 3.01172 6.89941ZM8.87109 9.84863C8.22492 9.84863 7.69922 9.32293 7.69922 8.67676C7.69922 8.03059 8.22492 7.50488 8.87109 7.50488C9.51727 7.50488 10.043 8.03059 10.043 8.67676C10.043 9.32293 9.51727 9.84863 8.87109 9.84863Z" fill="black"/>
</g>
<defs>
<clipPath id="clip0_2296_132">
<rect width="10" height="10" fill="white" transform="translate(0.941406 0.43457)"/>
</clipPath>
</defs>
</svg>
