<svg width="58" height="20" viewBox="0 0 58 20" fill="none" xmlns="http://www.w3.org/2000/svg">
<g id="Uber_logo_2018 1" clip-path="url(#clip0_301_1013)">
<g id="Group">
<path id="Vector" d="M4.0077 14.2837C4.24956 14.9298 4.58441 15.4823 5.01232 15.941C5.44023 16.3999 5.94717 16.751 6.53316 16.9944C7.1192 17.2379 7.75637 17.3596 8.44472 17.3596C9.1145 17.3596 9.74234 17.2332 10.3284 16.9803C10.9144 16.7275 11.426 16.3717 11.8632 15.9129C12.3003 15.4541 12.6399 14.9064 12.8818 14.2697C13.1236 13.633 13.2445 12.9214 13.2445 12.1349V0H16.1746V19.6629H13.2724V17.8371C12.6213 18.5299 11.8538 19.0636 10.9702 19.4382C10.0865 19.8127 9.13308 20 8.10987 20C7.06801 20 6.09599 19.8174 5.19367 19.4522C4.29142 19.0871 3.51001 18.5675 2.84963 17.8933C2.18924 17.2191 1.66828 16.4093 1.28693 15.4635C0.905519 14.5178 0.714844 13.4645 0.714844 12.3034V0H3.64493V12.1349C3.64493 12.9214 3.76583 13.6376 4.0077 14.2837Z" fill="#154444"/>
<path id="Vector_2" d="M21.2247 0V7.16291C21.8758 6.50749 22.6293 5.98787 23.4851 5.60394C24.3408 5.22001 25.2711 5.02808 26.2756 5.02808C27.3175 5.02808 28.2941 5.22467 29.2057 5.61793C30.1173 6.01118 30.9079 6.54491 31.5777 7.2191C32.2474 7.89329 32.7777 8.68912 33.1683 9.60672C33.559 10.5244 33.7543 11.4981 33.7543 12.5281C33.7543 13.558 33.559 14.5271 33.1683 15.4353C32.7777 16.3436 32.2474 17.1348 31.5777 17.8089C30.9079 18.4831 30.1173 19.0168 29.2057 19.4101C28.2941 19.8033 27.3174 19.9999 26.2756 19.9999C25.271 19.9999 24.3362 19.808 23.4711 19.4241C22.606 19.0402 21.8479 18.5205 21.1968 17.8651V19.6629H18.4062V0H21.2247ZM21.5456 14.4663C21.7967 15.0656 22.1456 15.5899 22.5921 16.0394C23.0386 16.4888 23.5595 16.8446 24.1548 17.1068C24.7502 17.369 25.392 17.5001 26.0803 17.5001C26.7501 17.5001 27.3826 17.369 27.9779 17.1068C28.5732 16.8446 29.0894 16.4889 29.5267 16.0394C29.9638 15.59 30.3127 15.0656 30.5731 14.4663C30.8336 13.8671 30.9638 13.221 30.9638 12.5281C30.9638 11.8352 30.8336 11.1845 30.5731 10.5758C30.3127 9.96721 29.9638 9.43821 29.5267 8.98877C29.0894 8.53939 28.5732 8.18822 27.9779 7.93543C27.3825 7.68265 26.75 7.55616 26.0803 7.55616C25.4106 7.55616 24.7781 7.68259 24.1828 7.93543C23.5875 8.18828 23.0666 8.53939 22.62 8.98877C22.1736 9.43821 21.8201 9.96721 21.5596 10.5758C21.2992 11.1845 21.1689 11.8352 21.1689 12.5281C21.1689 13.221 21.2945 13.8671 21.5456 14.4663Z" fill="#154444"/>
<path id="Vector_3" d="M35.3451 9.63485C35.7171 8.73597 36.2288 7.9448 36.8799 7.26128C37.531 6.57776 38.3031 6.03938 39.1961 5.64612C40.0891 5.25287 41.0565 5.05627 42.0983 5.05627C43.1215 5.05627 44.0703 5.24355 44.9447 5.61803C45.819 5.99258 46.5725 6.51225 47.205 7.17706C47.8376 7.84181 48.3306 8.62838 48.684 9.53658C49.0375 10.4449 49.2142 11.4327 49.2142 12.5001V13.4271H37.6334C37.7265 14.0076 37.9125 14.546 38.1915 15.0422C38.4706 15.5384 38.8194 15.9692 39.238 16.3343C39.6566 16.6996 40.131 16.9852 40.6612 17.1911C41.1914 17.3971 41.7541 17.5001 42.3495 17.5001C44.0425 17.5001 45.4099 16.7978 46.4516 15.3933L48.4887 16.9101C47.7818 17.8652 46.9075 18.6143 45.8657 19.1573C44.8238 19.7004 43.6518 19.9719 42.3495 19.9719C41.2891 19.9719 40.2985 19.7846 39.3776 19.4101C38.4567 19.0356 37.6567 18.5112 36.9777 17.8371C36.2987 17.1629 35.7638 16.3717 35.3732 15.4635C34.9825 14.5553 34.7871 13.5674 34.7871 12.5C34.787 11.4888 34.9731 10.5337 35.3451 9.63485ZM39.2659 8.52526C38.4752 9.19007 37.9497 10.0749 37.6892 11.1798H46.3679C46.1261 10.0749 45.6098 9.19007 44.8191 8.52526C44.0284 7.86052 43.1029 7.52811 42.0425 7.52811C40.9821 7.52811 40.0566 7.86052 39.2659 8.52526Z" fill="#154444"/>
<path id="Vector_4" d="M54.4888 8.84824C53.8935 9.50366 53.5959 10.3932 53.5959 11.5168V19.6629H50.7773V5.33705H53.5679V7.10672C53.9214 6.52619 54.3818 6.06737 54.9492 5.7303C55.5166 5.39317 56.191 5.22461 56.9724 5.22461H57.9491V7.86507H56.7771C55.8469 7.86513 55.0841 8.19281 54.4888 8.84824Z" fill="#154444"/>
</g>
</g>
<defs>
<clipPath id="clip0_301_1013">
<rect width="57.2338" height="20" fill="white" transform="translate(0.714844)"/>
</clipPath>
</defs>
</svg>
