<svg width="68" height="24" viewBox="0 0 68 24" fill="none" xmlns="http://www.w3.org/2000/svg">
<g id="visa 1" clip-path="url(#clip0_301_1031)">
<path id="Vector" d="M25.1777 22.32L28.5911 3.12H33.9244L30.6177 22.32H25.1777Z" fill="#3C58BF"/>
<path id="Vector_2" d="M25.1777 22.32L29.5511 3.12H33.9244L30.6177 22.32H25.1777Z" fill="#293688"/>
<path id="Vector_3" d="M49.9235 3.33331C48.8568 2.90665 47.1502 2.47998 45.0169 2.47998C39.6835 2.47998 35.8435 5.14665 35.8435 8.98665C35.8435 11.8666 38.5102 13.36 40.6435 14.32C42.7768 15.28 43.4169 15.92 43.4169 16.7733C43.4169 18.0533 41.7102 18.6933 40.2169 18.6933C38.0835 18.6933 36.9102 18.3733 35.0969 17.6266L34.3502 17.3066L33.6035 21.68C34.8835 22.2133 37.2302 22.7466 39.6835 22.7466C45.3369 22.7466 49.0702 20.08 49.0702 16.0266C49.0702 13.7866 47.6835 12.08 44.4835 10.6933C42.5635 9.73331 41.3902 9.19998 41.3902 8.23998C41.3902 7.38665 42.3502 6.53331 44.4835 6.53331C46.2969 6.53331 47.5768 6.85331 48.5368 7.27998L49.0702 7.49331L49.9235 3.33331Z" fill="#3C58BF"/>
<path id="Vector_4" d="M49.9235 3.33331C48.8568 2.90665 47.1502 2.47998 45.0169 2.47998C39.6835 2.47998 36.8035 5.14665 36.8035 8.98665C36.8035 11.8666 38.5102 13.36 40.6435 14.32C42.7768 15.28 43.4169 15.92 43.4169 16.7733C43.4169 18.0533 41.7102 18.6933 40.2169 18.6933C38.0835 18.6933 36.9102 18.3733 35.0969 17.6266L34.3502 17.3066L33.6035 21.68C34.8835 22.2133 37.2302 22.7466 39.6835 22.7466C45.3369 22.7466 49.0702 20.08 49.0702 16.0266C49.0702 13.7866 47.6835 12.08 44.4835 10.6933C42.5635 9.73331 41.3902 9.19998 41.3902 8.23998C41.3902 7.38665 42.3502 6.53331 44.4835 6.53331C46.2969 6.53331 47.5768 6.85331 48.5368 7.27998L49.0702 7.49331L49.9235 3.33331Z" fill="#293688"/>
<path id="Vector_5" d="M59.0975 3.12C57.8175 3.12 56.8575 3.22666 56.3242 4.50666L48.3242 22.32H54.0842L55.1509 19.12H61.9775L62.6175 22.32H67.7375L63.2575 3.12H59.0975ZM56.6442 15.92C56.9642 14.96 58.7775 10.2667 58.7775 10.2667C58.7775 10.2667 59.2042 9.09333 59.5242 8.34666L59.8442 10.16C59.8442 10.16 60.9109 14.96 61.1242 16.0267H56.6442V15.92Z" fill="#3C58BF"/>
<path id="Vector_6" d="M60.3775 3.12C59.0975 3.12 58.1375 3.22666 57.6042 4.50666L48.3242 22.32H54.0842L55.1509 19.12H61.9775L62.6175 22.32H67.7375L63.2575 3.12H60.3775ZM56.6442 15.92C57.0709 14.8533 58.7775 10.2667 58.7775 10.2667C58.7775 10.2667 59.2042 9.09333 59.5242 8.34666L59.8442 10.16C59.8442 10.16 60.9109 14.96 61.1242 16.0267H56.6442V15.92Z" fill="#293688"/>
<path id="Vector_7" d="M15.3633 16.56L14.8299 13.7867C13.8699 10.5867 10.7766 7.06668 7.36328 5.36002L12.1633 22.4267H17.9233L26.5633 3.22668H20.8033L15.3633 16.56Z" fill="#3C58BF"/>
<path id="Vector_8" d="M15.3633 16.56L14.8299 13.7867C13.8699 10.5867 10.7766 7.06668 7.36328 5.36002L12.1633 22.4267H17.9233L26.5633 3.22668H21.8699L15.3633 16.56Z" fill="#293688"/>
<path id="Vector_9" d="M0.537109 3.12L1.49711 3.33333C8.32377 4.93333 13.0171 8.98666 14.8304 13.7867L12.9104 4.72C12.5904 3.44 11.6304 3.12 10.4571 3.12H0.537109Z" fill="#FFBC00"/>
<path id="Vector_10" d="M0.537109 3.12C7.36377 4.71999 13.0171 8.88 14.8304 13.68L13.0171 6.10666C12.6971 4.82666 11.6304 4.08 10.4571 4.08L0.537109 3.12Z" fill="#F7981D"/>
<path id="Vector_11" d="M0.537109 3.12C7.36377 4.71999 13.0171 8.88 14.8304 13.68L13.5504 9.51999C13.2304 8.23999 12.8038 6.95999 11.3104 6.42666L0.537109 3.12Z" fill="#ED7C00"/>
<g id="Group">
<path id="Vector_12" d="M20.6974 15.92L17.0707 12.2933L15.364 16.3466L14.9374 13.68C13.9774 10.48 10.884 6.95996 7.4707 5.2533L12.2707 22.32H18.0307L20.6974 15.92Z" fill="#051244"/>
<path id="Vector_13" d="M30.6177 22.32L26.0311 17.6267L25.1777 22.32H30.6177Z" fill="#051244"/>
<path id="Vector_14" d="M42.8835 15.7067C43.3102 16.1333 43.5235 16.4533 43.4168 16.88C43.4168 18.16 41.7102 18.8 40.2168 18.8C38.0835 18.8 36.9102 18.48 35.0969 17.7333L34.3502 17.4133L33.6035 21.7867C34.8835 22.32 37.2302 22.8533 39.6835 22.8533C43.0968 22.8533 45.8702 21.8933 47.4702 20.1867L42.8835 15.7067Z" fill="#051244"/>
<path id="Vector_15" d="M49.0703 22.3199H54.0836L55.1503 19.1199H61.977L62.617 22.3199H67.737L65.9236 14.5332L59.5236 8.34656L59.8436 10.0532C59.8436 10.0532 60.9103 14.8532 61.1236 15.9199H56.6436C57.0703 14.8532 58.777 10.2666 58.777 10.2666C58.777 10.2666 59.2036 9.09322 59.5236 8.34656" fill="#051244"/>
</g>
</g>
<defs>
<clipPath id="clip0_301_1031">
<rect width="67.2" height="24" fill="white" transform="translate(0.537109)"/>
</clipPath>
</defs>
</svg>
